<svg width="164" height="36" viewBox="0 0 164 36" fill="none" xmlns="http://www.w3.org/2000/svg">
  <rect width="164" height="36" rx="8" fill="#F4F7FB"/>
  <path d="M20 9c-5.523 0-10 4.477-10 10s4.477 10 10 10 10-4.477 10-10S25.523 9 20 9Zm0 3.2a6.8 6.8 0 1 1 0 13.6 6.8 6.8 0 0 1 0-13.6Z" fill="#003274"/>
  <path d="M20 13.4c-3.643 0-6.6 2.957-6.6 6.6 0 3.642 2.957 6.6 6.6 6.6 3.642 0 6.6-2.958 6.6-6.6 0-3.643-2.958-6.6-6.6-6.6Zm0 2.1c2.475 0 4.5 2.025 4.5 4.5 0 2.474-2.025 4.5-4.5 4.5-2.474 0-4.5-2.026-4.5-4.5 0-2.475 2.026-4.5 4.5-4.5Z" fill="#3399FF"/>
  <text x="40" y="23.5" fill="#0F172A" font-family="'Inter', 'Segoe UI', sans-serif" font-size="16" font-weight="700">Atommaind</text>
</svg>
