<svg width="275" height="63" viewBox="0 0 275 63" fill="none" xmlns="http://www.w3.org/2000/svg">
<g clip-path="url(#clip0_5556_27279)">
<path d="M81.058 0.0390625H79.3652V62.6702H81.058V0.0390625Z" fill="#3C3B3A"/>
<path d="M107.918 23.7653H101.064L99.7876 27.678H96.0137L102.091 9.83496H107.058L113.08 27.678H109.195L107.918 23.7653ZM102.091 20.4354H106.864L104.505 12.9429L102.091 20.4354Z" fill="#3C3B3A"/>
<path d="M121.515 27.6781H117.686V13.3593H112.607V9.86279H126.538V13.3593H121.487V27.6781H121.515Z" fill="#3C3B3A"/>
<path d="M127.814 18.7705C127.814 12.7766 131.45 9.55762 136.389 9.55762C141.884 9.55762 145.075 13.0541 145.075 18.7705C145.075 25.1252 141.384 27.9834 136.5 27.9834C131.311 27.9834 127.814 24.7645 127.814 18.7705ZM140.996 18.7705C140.996 14.7191 139.136 12.9153 136.361 12.9153C133.836 12.9153 131.838 14.8023 131.838 18.7705C131.838 22.7387 133.892 24.6257 136.583 24.6257C139.192 24.6257 140.996 22.7665 140.996 18.7705Z" fill="#3C3B3A"/>
<path d="M168.635 27.678H164.778L163.806 15.8289L160.143 27.678H156.508L152.901 15.8844L151.929 27.678H148.072L149.848 9.83496H154.399L158.423 23.2936L162.391 9.83496H166.803L168.635 27.678Z" fill="#3C3B3A"/>
<path d="M198.633 27.7054H194.776L193.804 15.8562L190.141 27.7054H186.506L182.899 15.9117L181.928 27.7054H178.07L179.846 9.8623H184.397L188.421 23.3209L192.389 9.8623H196.801L198.633 27.7054Z" fill="#3C3B3A"/>
<path d="M212.313 23.7653H205.459L204.182 27.678H200.408L206.485 9.83496H211.453L217.474 27.678H213.589L212.313 23.7653ZM206.485 20.4354H211.258L208.9 12.9429L206.485 20.4354Z" fill="#3C3B3A"/>
<path d="M234.985 27.7058H231.155V15.2739L223.968 27.7058H219.861V9.8627H223.691V22.2668L230.906 9.8627H234.985V27.7058ZM232.598 4.67349C232.46 7.39297 230.24 8.53071 227.465 8.53071C224.69 8.53071 222.47 7.42072 222.331 4.67349L225.3 4.396C225.55 5.61699 226.327 6.03323 227.465 6.03323C228.575 6.03323 229.352 5.61699 229.574 4.396L232.598 4.67349Z" fill="#3C3B3A"/>
<path d="M254.271 27.7054H250.441V20.2685H243.06V27.7054H239.23V9.8623H243.06V16.8552H250.441V9.8623H254.271V27.7054Z" fill="#3C3B3A"/>
<path d="M275 31.6736H271.393V27.7054H260.57V31.6736H256.963V24.2644H258.656C260.376 21.3507 260.709 17.2715 260.876 11.777L260.931 9.8623H272.891V24.2644H275.028V31.6736H275ZM269.034 24.2644V13.3033H264.455C264.428 13.4698 264.4 14.1358 264.4 14.3023C264.233 18.1595 263.734 21.6282 262.541 24.2644H269.034Z" fill="#3C3B3A"/>
<path d="M99.538 52.4589H97.873V39.583H101.647C102.396 39.583 103.034 39.6663 103.617 39.805C104.2 39.9715 104.699 40.1935 105.116 40.5265C105.532 40.8595 105.837 41.2757 106.059 41.7752C106.281 42.2747 106.392 42.8852 106.392 43.579C106.392 44.911 105.948 45.9377 105.088 46.6314C104.228 47.3252 103.007 47.6859 101.481 47.6859H99.4825V52.4589H99.538ZM99.538 46.1597H101.536C102.563 46.1597 103.34 45.9377 103.867 45.5215C104.394 45.1052 104.672 44.467 104.672 43.6067C104.672 42.7187 104.394 42.0805 103.867 41.692C103.34 41.3035 102.563 41.1092 101.536 41.1092H99.538V46.1597Z" fill="#025EA1"/>
<path d="M114.384 52.6526C113.496 52.6526 112.691 52.4861 111.97 52.1809C111.248 51.8757 110.638 51.4317 110.138 50.8767C109.639 50.2939 109.25 49.6002 108.973 48.7954C108.695 47.9629 108.557 47.0472 108.557 46.0482C108.557 45.0215 108.695 44.1057 108.973 43.2732C109.25 42.4685 109.639 41.7747 110.166 41.192C110.666 40.6093 111.276 40.193 111.998 39.8878C112.719 39.5825 113.496 39.416 114.329 39.416C115.272 39.416 116.132 39.5825 116.854 39.9155C117.575 40.2485 118.186 40.6925 118.685 41.2753C119.185 41.858 119.546 42.5517 119.823 43.3842C120.073 44.189 120.212 45.1047 120.212 46.0482C120.212 47.1304 120.073 48.1017 119.768 48.9342C119.462 49.7667 119.074 50.4604 118.547 51.0154C118.019 51.5704 117.409 51.9867 116.715 52.2641C115.994 52.4861 115.217 52.6526 114.384 52.6526ZM114.551 51.0987C115.772 51.0987 116.715 50.6824 117.409 49.8222C118.103 48.9619 118.436 47.7132 118.436 46.0205C118.436 45.1325 118.352 44.3832 118.158 43.745C117.964 43.1067 117.686 42.5795 117.353 42.1632C116.993 41.747 116.576 41.4417 116.049 41.2475C115.55 41.0533 114.967 40.9423 114.329 40.9423C113.774 40.9423 113.246 41.0533 112.747 41.2475C112.247 41.4695 111.831 41.7747 111.47 42.191C111.11 42.6072 110.832 43.1345 110.638 43.7727C110.416 44.411 110.333 45.1602 110.333 46.0205C110.333 46.8529 110.444 47.6022 110.638 48.2404C110.832 48.8787 111.137 49.4059 111.498 49.8222C111.859 50.2384 112.303 50.5714 112.83 50.7657C113.33 50.9877 113.912 51.0987 114.551 51.0987Z" fill="#025EA1"/>
<path d="M131.922 52.0976C131.562 52.2641 131.145 52.4028 130.674 52.4861C130.202 52.5693 129.675 52.6248 129.12 52.6248C128.121 52.6248 127.205 52.4861 126.428 52.1808C125.651 51.8756 124.957 51.4593 124.402 50.8766C123.847 50.3216 123.431 49.6278 123.126 48.8508C122.82 48.0739 122.682 47.1581 122.682 46.1869C122.682 45.1046 122.82 44.1334 123.126 43.2731C123.431 42.4407 123.847 41.7192 124.402 41.1364C124.957 40.5537 125.623 40.1374 126.4 39.8322C127.177 39.5269 128.037 39.3882 129.009 39.3882C129.73 39.3882 130.341 39.4437 130.812 39.5547C131.284 39.6657 131.645 39.7767 131.95 39.8877L131.645 41.3307C131.229 41.1919 130.84 41.0809 130.424 41.0254C130.008 40.9699 129.591 40.9422 129.203 40.9422C127.677 40.9422 126.511 41.3584 125.706 42.2187C124.902 43.0789 124.513 44.3276 124.513 45.9926C124.513 46.7974 124.624 47.4911 124.846 48.1294C125.068 48.7676 125.401 49.2948 125.817 49.7388C126.234 50.1828 126.733 50.5158 127.344 50.7378C127.954 50.9598 128.62 51.0708 129.397 51.0708C129.813 51.0708 130.202 51.0431 130.618 50.9598C131.034 50.8766 131.395 50.7656 131.7 50.5991L131.922 52.0976Z" fill="#025EA1"/>
<path d="M142.105 49.0179H136.611L135.362 52.4589H133.697L138.609 39.583H140.274L145.102 52.4589H143.382L142.105 49.0179ZM137.138 47.5194H141.578L139.441 41.47H139.358L137.138 47.5194Z" fill="#025EA1"/>
<path d="M150.432 52.4589H148.767V41.137H144.965V39.583H154.233V41.137H150.432V52.4589Z" fill="#025EA1"/>
<path d="M161.447 52.6526C160.559 52.6526 159.754 52.4861 159.032 52.1809C158.311 51.8757 157.7 51.4317 157.201 50.8767C156.701 50.2939 156.313 49.6002 156.035 48.7954C155.758 47.9629 155.619 47.0472 155.619 46.0482C155.619 45.0215 155.758 44.1057 156.035 43.2732C156.313 42.4685 156.701 41.7747 157.229 41.192C157.728 40.6093 158.339 40.193 159.06 39.8878C159.782 39.5825 160.559 39.416 161.391 39.416C162.335 39.416 163.195 39.5825 163.916 39.9155C164.638 40.2485 165.248 40.6925 165.748 41.2753C166.247 41.858 166.608 42.5517 166.886 43.3842C167.135 44.189 167.274 45.1047 167.274 46.0482C167.274 47.1304 167.135 48.1017 166.83 48.9342C166.525 49.7667 166.136 50.4604 165.609 51.0154C165.082 51.5704 164.471 51.9867 163.778 52.2641C163.056 52.4861 162.279 52.6526 161.447 52.6526ZM161.613 51.0987C162.834 51.0987 163.778 50.6824 164.471 49.8222C165.165 48.9619 165.498 47.7132 165.498 46.0205C165.498 45.1325 165.415 44.3832 165.221 43.745C165.026 43.1067 164.749 42.5795 164.416 42.1632C164.055 41.747 163.639 41.4417 163.112 41.2475C162.612 41.0533 162.029 40.9423 161.391 40.9423C160.836 40.9423 160.309 41.0533 159.809 41.2475C159.31 41.4695 158.894 41.7747 158.533 42.191C158.172 42.6072 157.895 43.1345 157.7 43.7727C157.478 44.411 157.395 45.1602 157.395 46.0205C157.395 46.8529 157.506 47.6022 157.7 48.2404C157.895 48.8787 158.2 49.4059 158.561 49.8222C158.921 50.2384 159.365 50.5714 159.893 50.7657C160.392 50.9877 160.975 51.0987 161.613 51.0987Z" fill="#025EA1"/>
<path d="M182.872 52.4589H181.207L180.43 42.4135L177.183 52.4589H175.463L172.216 42.4412L171.411 52.4589H169.746L170.856 39.583H172.882L176.351 50.6552L179.764 39.583H181.789L182.872 52.4589Z" fill="#025EA1"/>
<path d="M31.3295 0.0390625C14.0136 0.0390625 0 14.0527 0 31.3685C0 48.6566 14.0136 62.698 31.3295 62.698C48.6176 62.698 62.6589 48.6844 62.6589 31.3685C62.6312 14.0527 48.6176 0.0390625 31.3295 0.0390625ZM28.1937 51.6536C26.4733 53.0966 24.6418 54.4286 22.3385 54.5118C18.1483 54.6506 12.5429 52.1531 12.2654 45.7152C12.2099 44.6329 11.7104 43.9947 10.8779 43.3842C7.07619 40.6092 4.93946 36.7797 4.80071 32.1178C4.63421 26.5956 6.77094 22.0446 11.5994 19.0199C11.9324 18.7979 12.0711 18.5481 12.1266 18.1874C12.9036 13.2202 14.5686 11.6385 16.8718 9.97347C18.8976 8.53049 21.1453 8.25299 22.5605 8.19749C24.614 8.11424 26.5288 8.64149 28.3047 9.69598C29.4425 10.3897 29.8587 11.6662 29.276 12.7207C28.6655 13.8584 27.3613 14.2469 26.168 13.5532C24.7805 12.7484 20.7291 11.9715 18.1483 14.6909C16.9828 15.9119 16.3169 17.2994 16.5666 18.9921C16.7886 20.4906 16.3169 21.5174 14.9294 22.2111C9.35167 24.9583 7.15944 32.0345 11.4606 38.0562C12.2376 39.1385 13.2644 39.971 14.5131 40.4704C16.0116 41.0532 16.6776 42.0522 16.5944 43.7449C16.4556 46.7974 18.2038 49.3504 21.2008 50.0996C23.3098 50.6269 25.7795 48.0184 27.4168 46.1591C31.6625 41.3029 35.1034 33.8383 35.7972 32.534C36.1024 31.9513 36.1302 31.5073 35.7139 30.9523C33.7992 28.2883 34.1322 24.9583 36.4909 22.9049C38.7942 20.9069 42.1796 20.9901 44.4828 23.2379C46.1756 24.8751 46.5918 26.9563 45.8981 29.1763C45.1766 31.4518 43.5116 32.756 41.1806 33.1723C40.5424 33.2833 40.2094 33.5053 39.9596 34.0603C38.7942 36.308 34.1044 46.6586 28.1937 51.6536ZM51.0595 43.6894C50.7265 43.9114 50.5878 44.1612 50.5323 44.5219C49.7553 49.4891 48.0903 51.0709 45.7871 52.7358C43.7614 54.1788 41.5136 54.4563 40.0984 54.5118C38.0449 54.5951 36.1302 54.0678 34.3542 53.0133C33.2165 52.3196 32.8002 51.0431 33.3829 49.9886C33.9934 48.8509 35.2977 48.4624 36.4909 49.1561C37.8784 49.9609 41.9299 50.7379 44.5106 48.0184C45.6761 46.7974 46.3421 45.4099 46.0923 43.7172C45.8703 42.2187 46.3421 41.1919 47.7296 40.4982C53.3073 37.751 55.4995 30.6748 51.1983 24.6531C50.4213 23.5709 49.3946 22.7384 48.1458 22.2389C46.6473 21.6561 45.9813 20.6571 46.0646 18.9644C46.2033 15.9119 44.4551 13.3589 41.4581 12.6097C39.3491 12.0825 36.8794 14.6909 35.2422 16.5502C30.9965 21.4064 27.5555 28.8711 26.8618 30.1753C26.5565 30.758 26.5288 31.202 26.945 31.757C28.8597 34.421 28.5267 37.751 26.168 39.8045C23.8648 41.8024 20.4793 41.7192 18.1761 39.4715C16.4834 37.8342 16.0671 35.753 16.7608 33.533C17.4823 31.2575 19.1473 29.9533 21.4783 29.537C22.1166 29.426 22.4495 29.2041 22.6993 28.6491C23.8093 26.4013 28.499 16.0229 34.4374 11.028C36.1579 9.58498 37.9894 8.25299 40.2926 8.16974C44.4828 8.03099 50.0883 10.5285 50.3658 16.9664C50.4213 18.0487 50.9208 18.6869 51.7533 19.2974C55.555 22.0724 57.6917 25.9018 57.8305 30.5638C58.0247 36.1137 55.888 40.6647 51.0595 43.6894Z" fill="url(#paint0_linear_5556_27279)"/>
<path d="M36.0742 41.1097C36.0742 41.1097 36.1036 41.0804 36.0742 41.1097C36.0742 41.0804 36.0742 41.1097 36.0742 41.1097Z" fill="url(#paint1_linear_5556_27279)"/>
</g>
<defs>
<linearGradient id="paint0_linear_5556_27279" x1="10.38" y1="57.7681" x2="49.5964" y2="8.30194" gradientUnits="userSpaceOnUse">
<stop stop-color="#4993D0"/>
<stop offset="1" stop-color="#282C62"/>
</linearGradient>
<linearGradient id="paint1_linear_5556_27279" x1="16.9949" y1="65.1765" x2="58.5018" y2="12.8212" gradientUnits="userSpaceOnUse">
<stop stop-color="#4993D0"/>
<stop offset="1" stop-color="#282C62"/>
</linearGradient>
<clipPath id="clip0_5556_27279">
<rect width="275" height="62.6312" fill="white" transform="translate(0 0.0390625)"/>
</clipPath>
</defs>
</svg>
